<svg width="517" height="251" viewBox="0 0 517 251" fill="none" xmlns="http://www.w3.org/2000/svg">
<path d="M63.5 63C28.25 63 0.25 91 0.25 126.25C0.25 161.5 28.25 187.75 63.5 187.75C77.75 187.75 89.75 184.25 100.5 175.25C100.5 182.5 107.5 187.75 112.5 187.75C119.75 187.75 125 182.5 125 175.25V126.25C125 91 98.75 63 63.5 63ZM63.5 163.25C42.5 163.25 24.75 147.25 24.75 126.25C24.75 105.25 42.5 87.5 63.5 87.5C84.5 87.5 100.5 105.25 100.5 126.25C100.5 147.25 84.5 163.25 63.5 163.25ZM193.445 62C179.195 62 165.945 66.75 155.445 74.75V12.5C155.445 5.74999 149.945 0.249988 143.195 0.249988C136.195 0.249988 130.695 5.74999 130.695 12.5V124.5V124.75C130.695 159.25 158.945 187.5 193.445 187.5C228.195 187.5 256.195 159.25 256.195 124.75C256.195 90 228.195 62 193.445 62ZM193.445 162.75C172.445 162.75 155.445 145.75 155.445 124.75V124.5C155.445 103.75 172.445 86.75 193.445 86.75C214.445 86.75 231.445 103.75 231.445 124.75C231.445 145.5 214.445 162.75 193.445 162.75Z" fill="#276221"/>
<path d="M323.088 189C357.838 189 385.838 161 385.838 126.25C385.838 91.75 357.838 63.5 323.088 63.5C288.588 63.5 260.338 91.75 260.338 126.25V126.5V238.5C260.338 245.25 265.838 250.75 272.838 250.75C279.588 250.75 285.088 245.25 285.088 238.5V176.25C295.588 184.25 308.838 189 323.088 189ZM323.088 88.25C344.088 88.25 361.088 105.5 361.088 126.25C361.088 147.25 344.088 164.25 323.088 164.25C302.088 164.25 285.088 147.25 285.088 126.5V126.25C285.088 105.25 302.088 88.25 323.088 88.25ZM454.975 63C419.725 63 391.725 91 391.725 126.25C391.725 161.5 419.725 187.75 454.975 187.75C469.225 187.75 481.225 184.25 491.975 175.25C491.975 182.5 498.975 187.75 503.975 187.75C511.225 187.75 516.475 182.5 516.475 175.25V126.25C516.475 91 490.225 63 454.975 63ZM454.975 163.25C433.975 163.25 416.225 147.25 416.225 126.25C416.225 105.25 433.975 87.5 454.975 87.5C475.975 87.5 491.975 105.25 491.975 126.25C491.975 147.25 475.975 163.25 454.975 163.25Z" fill="#4A9B41"/>
</svg>
